<svg width="132" height="125" xmlns="http://www.w3.org/2000/svg" xmlns:xlink="http://www.w3.org/1999/xlink" xml:space="preserve" overflow="hidden"><g transform="translate(-1089 -488)"><g><g><g><path d="M134.571 92.0748C134.571 94.0225 132.977 95.6161 131.029 95.6161L120.405 95.6161C118.458 95.6161 116.864 94.0225 116.864 92.0748L116.864 88.5334C116.864 86.5857 118.458 84.9921 120.405 84.9921L131.029 84.9921C132.977 84.9921 134.571 86.5857 134.571 88.5334L134.571 92.0748ZM43.0272 74.3681 53.2971 49.9328C53.8283 48.6934 55.0678 47.808 56.4843 47.808L113.146 47.808C114.562 47.808 115.802 48.6934 116.333 49.9328L126.957 74.3681 43.0272 74.3681ZM53.1201 92.0748C53.1201 94.0225 51.5265 95.6161 49.5787 95.6161L38.9547 95.6161C37.007 95.6161 35.4134 94.0225 35.4134 92.0748L35.4134 88.5334C35.4134 86.5857 37.007 84.9921 38.9547 84.9921L49.5787 84.9921C51.5265 84.9921 53.1201 86.5857 53.1201 88.5334L53.1201 92.0748ZM134.571 74.3681 123.061 47.2768C121.468 43.2043 117.572 40.7254 113.323 40.7254L99.1574 40.7254 99.1574 37.184C99.1574 33.2886 95.9702 30.1014 92.0748 30.1014L77.9094 30.1014C74.0139 30.1014 70.8267 33.2886 70.8267 37.184L70.8267 40.7254 56.6614 40.7254C52.4118 40.7254 48.5163 43.2043 46.9227 47.2768L35.4134 74.3681C29.5702 74.3681 24.7894 79.1489 24.7894 84.9921L24.7894 113.323C24.7894 117.218 27.9766 120.405 31.872 120.405L35.4134 120.405 35.4134 132.8C35.4134 136.696 38.6006 139.883 42.496 139.883L46.0374 139.883C49.9328 139.883 53.1201 136.696 53.1201 132.8L53.1201 120.405 116.864 120.405 116.864 132.8C116.864 136.696 120.051 139.883 123.947 139.883L127.488 139.883C131.384 139.883 134.571 136.696 134.571 132.8L134.571 120.405 138.112 120.405C142.008 120.405 145.195 117.218 145.195 113.323L145.195 84.9921C145.195 79.1489 140.414 74.3681 134.571 74.3681Z" fill="#000000" fill-rule="nonzero" fill-opacity="1" transform="matrix(1 0 0 1.0003 1075 469.973)"/></g></g></g></g></svg>