<svg width="164" height="111" xmlns="http://www.w3.org/2000/svg" xmlns:xlink="http://www.w3.org/1999/xlink" xml:space="preserve" overflow="hidden"><g transform="translate(-940 -369)"><g><g><g><g><path d="M149.667 106.904 145.543 111.028 50.7038 111.028 45.2053 105.53 45.2053 78.0413 50.7038 72.5429 145.543 72.5429 149.667 76.6655ZM36.9585 64.2961 36.9585 119.275 157.914 119.275 157.914 64.2961Z" fill="#47D45A" fill-rule="nonzero" fill-opacity="1" transform="matrix(1.0107 0 0 1 941 348.828)"/><path d="M108.431 91.7849C108.431 99.3761 103.509 105.53 97.4361 105.53 91.3637 105.53 86.441 99.3761 86.441 91.7849 86.441 84.1936 91.3637 78.0396 97.4361 78.0396 103.509 78.0396 108.431 84.1936 108.431 91.7849Z" fill="#47D45A" fill-rule="nonzero" fill-opacity="1" transform="matrix(1.0107 0 0 1 941 348.828)"/><path d="M67.1973 91.7849C67.1973 94.0626 65.3509 95.9091 63.0731 95.9091 60.7953 95.9091 58.9489 94.0626 58.9489 91.7849 58.9489 89.5071 60.7953 87.6606 63.0731 87.6606 65.3509 87.6606 67.1973 89.5071 67.1973 91.7849Z" fill="#47D45A" fill-rule="nonzero" fill-opacity="1" transform="matrix(1.0107 0 0 1 941 348.828)"/><path d="M135.923 91.7849C135.923 94.0626 134.077 95.9091 131.799 95.9091 129.521 95.9091 127.675 94.0626 127.675 91.7849 127.675 89.5071 129.521 87.6606 131.799 87.6606 134.077 87.6606 135.923 89.5071 135.923 91.7849Z" fill="#47D45A" fill-rule="nonzero" fill-opacity="1" transform="matrix(1.0107 0 0 1 941 348.828)"/><path d="M122.039 37.7683 124.102 42.9912 132.349 41.3415 126.575 26.9092 52.6273 57.148 94.9616 48.7634 122.039 37.7683Z" fill="#47D45A" fill-rule="nonzero" fill-opacity="1" transform="matrix(1.0107 0 0 1 941 348.828)"/><path d="M114.892 58.7977 136.609 54.5374 137.571 58.7977 145.956 58.7977 143.206 44.7786 72.6958 58.7977 114.892 58.7977Z" fill="#47D45A" fill-rule="nonzero" fill-opacity="1" transform="matrix(1.0107 0 0 1 941 348.828)"/><path d="M3.35987 73.9473 30.2388 73.9473 30.2388 80.6671 3.35987 80.6671Z" fill="#47D45A" fill-rule="nonzero" fill-opacity="1" transform="matrix(1.0107 0 0 1 941 348.828)"/><path d="M11.7595 87.3868 30.2388 87.3868 30.2388 94.1065 11.7595 94.1065Z" fill="#47D45A" fill-rule="nonzero" fill-opacity="1" transform="matrix(1.0107 0 0 1 941 348.828)"/><path d="M6.71973 100.826 30.2388 100.826 30.2388 107.546 6.71973 107.546Z" fill="#47D45A" fill-rule="nonzero" fill-opacity="1" transform="matrix(1.0107 0 0 1 941 348.828)"/></g></g></g></g></g></svg>