<svg width="181" height="182" xmlns="http://www.w3.org/2000/svg" xmlns:xlink="http://www.w3.org/1999/xlink" xml:space="preserve" overflow="hidden"><g transform="translate(-1060 -478)"><g><g><g><path d="M146.792 61.1632C146.792 70.6215 139.124 78.2889 129.666 78.2889 120.208 78.2889 112.54 70.6215 112.54 61.1632 112.54 51.7049 120.208 44.0375 129.666 44.0375 139.124 44.0375 146.792 51.7049 146.792 61.1632Z" fill="#000000" fill-rule="nonzero" fill-opacity="1" transform="matrix(1 0 0 1.0005 1031.4 455.01)"/><path d="M88.075 163.917C88.075 178.78 76.0262 190.829 61.1632 190.829 46.3002 190.829 34.2514 178.78 34.2514 163.917 34.2514 149.054 46.3002 137.006 61.1632 137.006 76.0262 137.006 88.075 149.054 88.075 163.917Z" fill="#000000" fill-rule="nonzero" fill-opacity="1" transform="matrix(1 0 0 1.0005 1031.4 455.01)"/><path d="M200.615 163.917C200.615 178.78 188.566 190.829 173.703 190.829 158.84 190.829 146.792 178.78 146.792 163.917 146.792 149.054 158.84 137.006 173.703 137.006 188.566 137.006 200.615 149.054 200.615 163.917Z" fill="#000000" fill-rule="nonzero" fill-opacity="1" transform="matrix(1 0 0 1.0005 1031.4 455.01)"/><path d="M125.262 119.391 113.03 118.167 124.528 98.3504 150.706 112.54C150.461 112.785 150.461 113.03 150.217 113.274L129.666 124.773 129.666 124.284C129.666 121.837 127.709 119.635 125.262 119.391ZM173.703 129.666C178.352 129.666 182.756 130.645 186.67 132.357 189.117 127.953 190.829 122.816 190.829 117.433 190.829 101.286 177.618 88.075 161.471 88.075 158.046 88.075 154.865 88.809 151.685 89.7876 152.908 92.2341 153.642 94.9253 153.887 97.8611L120.858 79.7568C120.369 79.5122 119.88 79.2675 119.391 79.2675 113.764 77.0656 107.403 79.0228 104.222 84.4052L87.0964 113.764C86.8517 114.253 86.6071 114.987 86.3624 115.476L34.2514 110.094 34.2514 119.88 70.9493 131.134C85.1392 135.293 95.4146 148.504 95.4146 163.917 95.4146 167.342 94.9253 170.523 93.9467 173.703L140.92 173.703C139.941 170.523 139.452 167.342 139.452 163.917 139.452 145.079 154.865 129.666 173.703 129.666Z" fill="#000000" fill-rule="nonzero" fill-opacity="1" transform="matrix(1 0 0 1.0005 1031.4 455.01)"/></g></g></g></g></svg>