<svg width="70" height="75" xmlns="http://www.w3.org/2000/svg" xmlns:xlink="http://www.w3.org/1999/xlink" xml:space="preserve" overflow="hidden"><g transform="translate(-688 -229)"><g><g><g><path d="M63.5733 29.8C63.5733 38.5777 56.4577 45.6933 47.68 45.6933 38.9024 45.6933 31.7867 38.5777 31.7867 29.8 31.7867 21.0224 38.9024 13.9067 47.68 13.9067 56.4577 13.9067 63.5733 21.0224 63.5733 29.8Z" fill="#83CBEB" fill-rule="nonzero" fill-opacity="1" transform="matrix(1.00415 0 0 1 676.223 219.642)"/><path d="M79.4667 81.4533 79.4667 65.56C79.4667 63.176 78.2747 60.792 76.288 59.2027 71.9174 55.6267 66.3547 53.2427 60.792 51.6533 56.8187 50.4613 52.448 49.6667 47.68 49.6667 43.3093 49.6667 38.9387 50.4613 34.568 51.6533 29.0053 53.2427 23.4427 56.024 19.072 59.2027 17.0853 60.792 15.8933 63.176 15.8933 65.56L15.8933 81.4533 79.4667 81.4533Z" fill="#83CBEB" fill-rule="nonzero" fill-opacity="1" transform="matrix(1.00415 0 0 1 676.223 219.642)"/></g></g></g></g></svg>